<svg width="28" height="28" viewBox="0 0 28 28" fill="none" xmlns="http://www.w3.org/2000/svg">
<g clip-path="url(#clip0_580_2857)">
<path d="M22.0733 2.34502C21.84 1.65669 21.1867 1.16669 20.4167 1.16669H7.58333C6.81333 1.16669 6.17167 1.65669 5.92667 2.34502L3.5 9.33335V18.6667C3.5 19.3084 4.025 19.8334 4.66667 19.8334H5.83333C6.475 19.8334 7 19.3084 7 18.6667V17.5H21V18.6667C21 19.3084 21.525 19.8334 22.1667 19.8334H23.3333C23.975 19.8334 24.5 19.3084 24.5 18.6667V9.33335L22.0733 2.34502ZM7.99167 3.50002H19.9967L21.2567 7.12835H6.73167L7.99167 3.50002ZM22.1667 15.1667H5.83333V9.33335H22.1667V15.1667Z" fill="white"/>
<path d="M8.75 14C9.7165 14 10.5 13.2165 10.5 12.25C10.5 11.2835 9.7165 10.5 8.75 10.5C7.7835 10.5 7 11.2835 7 12.25C7 13.2165 7.7835 14 8.75 14Z" fill="white"/>
<path d="M19.25 14C20.2165 14 21 13.2165 21 12.25C21 11.2835 20.2165 10.5 19.25 10.5C18.2835 10.5 17.5 11.2835 17.5 12.25C17.5 13.2165 18.2835 14 19.25 14Z" fill="white"/>
<path d="M8.16675 23.3333H12.8334V21L19.8334 24.5H15.1667V26.8333L8.16675 23.3333Z" fill="white"/>
</g>
<defs>
<clipPath id="clip0_580_2857">
<rect width="28" height="28" fill="white"/>
</clipPath>
</defs>
</svg>
